{
  "asset": {
    "generator": "glTF-Transform v4.5.0",
    "version": "2.0"
  },
  "accessors": [
    {
      "type": "SCALAR",
      "componentType": 5123,
      "count": 7302,
      "bufferView": 0,
      "byteOffset": 0
    },
    {
      "type": "SCALAR",
      "componentType": 5125,
      "count": 222606,
      "bufferView": 0,
      "byteOffset": 14604
    },
    {
      "type": "SCALAR",
      "componentType": 5123,
      "count": 99897,
      "bufferView": 0,
      "byteOffset": 905028
    },
    {
      "type": "VEC3",
      "componentType": 5126,
      "count": 1874,
      "max": [
        1.7233905792236328,
        3.5597565174102783,
        1.2515863180160522
      ],
      "min": [
        -1.425878882408142,
        -0.01643257960677147,
        -1.729116678237915
      ],
      "bufferView": 1,
      "byteOffset": 0
    },
    {
      "type": "VEC3",
      "componentType": 5126,
      "count": 1874,
      "bufferView": 1,
      "byteOffset": 12
    },
    {
      "type": "VEC2",
      "componentType": 5126,
      "count": 1874,
      "bufferView": 1,
      "byteOffset": 24
    },
    {
      "type": "VEC3",
      "componentType": 5126,
      "count": 154097,
      "max": [
        2.4107038974761963,
        5.0071187019348145,
        2.2339046001434326
      ],
      "min": [
        -2.3444457054138184,
        0.6301747560501099,
        -2.583538055419922
      ],
      "bufferView": 2,
      "byteOffset": 0
    },
    {
      "type": "VEC3",
      "componentType": 5126,
      "count": 154097,
      "bufferView": 2,
      "byteOffset": 12
    },
    {
      "type": "VEC2",
      "componentType": 5126,
      "count": 154097,
      "bufferView": 2,
      "byteOffset": 24
    },
    {
      "type": "VEC3",
      "componentType": 5126,
      "count": 31010,
      "max": [
        2.267362117767334,
        4.84549617767334,
        2.1925296783447266
      ],
      "min": [
        -2.172360420227051,
        0.7453981637954712,
        -2.4545059204101562
      ],
      "bufferView": 3,
      "byteOffset": 0
    },
    {
      "type": "VEC3",
      "componentType": 5126,
      "count": 31010,
      "bufferView": 3,
      "byteOffset": 12
    },
    {
      "type": "VEC2",
      "componentType": 5126,
      "count": 31010,
      "bufferView": 3,
      "byteOffset": 24
    }
  ],
  "bufferViews": [
    {
      "buffer": 0,
      "byteOffset": 0,
      "byteLength": 1104824,
      "target": 34963
    },
    {
      "buffer": 0,
      "byteOffset": 1104824,
      "byteLength": 59968,
      "byteStride": 32,
      "target": 34962
    },
    {
      "buffer": 0,
      "byteOffset": 1164792,
      "byteLength": 4931104,
      "byteStride": 32,
      "target": 34962
    },
    {
      "buffer": 0,
      "byteOffset": 6095896,
      "byteLength": 992320,
      "byteStride": 32,
      "target": 34962
    }
  ],
  "samplers": [
    {
      "magFilter": 9729,
      "minFilter": 9987,
      "wrapS": 10497,
      "wrapT": 10497
    }
  ],
  "textures": [
    {
      "source": 1,
      "sampler": 0
    },
    {
      "source": 0,
      "sampler": 0
    },
    {
      "source": 2,
      "sampler": 0
    },
    {
      "source": 4,
      "sampler": 0
    },
    {
      "source": 3,
      "sampler": 0
    },
    {
      "source": 5,
      "sampler": 0
    },
    {
      "source": 7,
      "sampler": 0
    },
    {
      "source": 6,
      "sampler": 0
    },
    {
      "source": 8,
      "sampler": 0
    }
  ],
  "images": [
    {
      "name": "island_tree_01_nor_gl",
      "mimeType": "image/jpeg",
      "uri": "normal_1.jpg"
    },
    {
      "name": "island_tree_01_diff",
      "mimeType": "image/jpeg",
      "uri": "baseColor_1.jpg"
    },
    {
      "name": "island_tree_01_rough",
      "mimeType": "image/jpeg",
      "uri": "metallicRoughness_1.jpg"
    },
    {
      "name": "island_tree_01_leaves_nor_gl",
      "mimeType": "image/jpeg",
      "uri": "normal_2.jpg"
    },
    {
      "name": "island_tree_01_leaves_diff-island_tree_01_leaves_alpha",
      "mimeType": "image/jpeg",
      "uri": "baseColor_2.jpg"
    },
    {
      "name": "island_tree_01_leaves_rough",
      "mimeType": "image/jpeg",
      "uri": "metallicRoughness_2.jpg"
    },
    {
      "name": "island_tree_01_branches_nor_gl",
      "mimeType": "image/jpeg",
      "uri": "normal_3.jpg"
    },
    {
      "name": "island_tree_01_branches_diff",
      "mimeType": "image/jpeg",
      "uri": "baseColor_3.jpg"
    },
    {
      "name": "island_tree_01_branches_rough",
      "mimeType": "image/jpeg",
      "uri": "metallicRoughness_3.jpg"
    }
  ],
  "buffers": [
    {
      "uri": "tree.bin",
      "byteLength": 7088216
    }
  ],
  "materials": [
    {
      "name": "island_tree_01",
      "doubleSided": true,
      "pbrMetallicRoughness": {
        "metallicFactor": 0,
        "baseColorTexture": {
          "index": 0
        },
        "metallicRoughnessTexture": {
          "index": 2
        }
      },
      "normalTexture": {
        "index": 1
      }
    },
    {
      "name": "island_tree_01_leaves",
      "alphaMode": "BLEND",
      "doubleSided": true,
      "pbrMetallicRoughness": {
        "metallicFactor": 0,
        "baseColorTexture": {
          "index": 3
        },
        "metallicRoughnessTexture": {
          "index": 5
        }
      },
      "normalTexture": {
        "index": 4
      }
    },
    {
      "name": "island_tree_01_branches",
      "doubleSided": true,
      "pbrMetallicRoughness": {
        "metallicFactor": 0,
        "baseColorTexture": {
          "index": 6,
          "extensions": {
            "KHR_texture_transform": {
              "offset": [
                0,
                -2.4000000953674316
              ],
              "scale": [
                15,
                3.4000000953674316
              ]
            }
          }
        },
        "metallicRoughnessTexture": {
          "index": 8,
          "extensions": {
            "KHR_texture_transform": {
              "offset": [
                0,
                -2.4000000953674316
              ],
              "scale": [
                15,
                3.4000000953674316
              ]
            }
          }
        }
      },
      "normalTexture": {
        "index": 7,
        "scale": 0.5,
        "extensions": {
          "KHR_texture_transform": {
            "offset": [
              0,
              -2.4000000953674316
            ],
            "scale": [
              15,
              3.4000000953674316
            ]
          }
        }
      },
      "extensions": {
        "KHR_materials_ior": {
          "ior": 1.4500000476837158
        },
        "KHR_materials_specular": {
          "specularFactor": 0.4100000262260437
        }
      }
    }
  ],
  "meshes": [
    {
      "name": "island_trees_01_blockout_cleaned",
      "primitives": [
        {
          "attributes": {
            "POSITION": 3,
            "NORMAL": 4,
            "TEXCOORD_0": 5
          },
          "mode": 4,
          "material": 0,
          "indices": 0
        },
        {
          "attributes": {
            "POSITION": 6,
            "NORMAL": 7,
            "TEXCOORD_0": 8
          },
          "mode": 4,
          "material": 1,
          "indices": 1
        },
        {
          "attributes": {
            "POSITION": 9,
            "NORMAL": 10,
            "TEXCOORD_0": 11
          },
          "mode": 4,
          "material": 2,
          "indices": 2
        }
      ]
    }
  ],
  "nodes": [
    {
      "name": "island_tree_01_LOD0",
      "mesh": 0
    }
  ],
  "scenes": [
    {
      "name": "Scene",
      "nodes": [
        0
      ]
    }
  ],
  "scene": 0,
  "extensionsUsed": [
    "KHR_materials_ior",
    "KHR_materials_specular",
    "KHR_texture_transform"
  ],
  "extensionsRequired": [
    "KHR_texture_transform"
  ]
}